<svg width="108" height="36" viewBox="0 0 108 36" fill="none" xmlns="http://www.w3.org/2000/svg">
<path fill-rule="evenodd" clip-rule="evenodd" d="M55.8151 8.94166H57.2359L56.7186 7.06449H56.3946L55.8151 8.94166ZM57.5288 9.91779H55.5346L55.1109 11.357H54.0391L55.6967 6.01953H57.3917L59.0617 11.357H57.965L57.5288 9.91779Z" fill="#F1F3F5"/>
<path fill-rule="evenodd" clip-rule="evenodd" d="M60.9139 7.00076V11.3433H59.8047V6.00586H63.6434V7.00076H60.9139Z" fill="#F1F3F5"/>
<path fill-rule="evenodd" clip-rule="evenodd" d="M68.5179 10.3484V11.3433H64.5234V6.00586H68.4369V7.00076H65.6264V8.12706H67.8137V9.09694H65.6264V10.3484H68.5179Z" fill="#F1F3F5"/>
<path fill-rule="evenodd" clip-rule="evenodd" d="M74.1349 6.00586V11.3433H73.0257V9.10945H70.6639V11.3433H69.5547V6.00586H70.6639V8.08952H73.0257V6.00586H74.1349Z" fill="#F1F3F5"/>
<path fill-rule="evenodd" clip-rule="evenodd" d="M79.1572 6.98825H77.4996V11.3433H76.3842V6.98825H74.7266V6.00586H79.1572V6.98825Z" fill="#F1F3F5"/>
<path fill-rule="evenodd" clip-rule="evenodd" d="M84.3314 9.70411C84.2599 10.2273 83.9927 10.7035 83.5841 11.0359C83.1755 11.3683 82.6561 11.532 82.1316 11.4937C80.5176 11.4937 79.6016 10.3674 79.6016 8.75301C79.6016 7.13864 80.5238 6.00608 82.1316 6.00608C82.6277 5.96753 83.1207 6.11317 83.517 6.41535C83.9132 6.71754 84.1853 7.15526 84.2815 7.64548H83.1287C83.0589 7.44234 82.9218 7.26938 82.7404 7.15549C82.5589 7.04161 82.344 6.9937 82.1316 7.01976C81.1844 7.01976 80.7357 7.7894 80.7357 8.77804C80.7357 9.76669 81.1844 10.5301 82.1316 10.5301C82.3751 10.5529 82.6182 10.4833 82.8131 10.335C83.008 10.1868 83.1406 9.97064 83.1847 9.72914L84.3314 9.70411Z" fill="#F1F3F5"/>
<path fill-rule="evenodd" clip-rule="evenodd" d="M89.2103 6.98825H87.5465V11.3433H86.4373V6.98825H84.7734V6.00586H89.2103V6.98825Z" fill="#F1F3F5"/>
<path fill-rule="evenodd" clip-rule="evenodd" d="M93.2309 9.73517C93.2309 9.29091 92.9567 9.0594 92.3834 9.0594H91.0685V10.3922H92.3647C92.9255 10.3922 93.2309 10.1857 93.2309 9.76646V9.73517ZM93.0813 7.55766C93.0813 7.16345 92.8258 6.96948 92.321 6.96948H91.0747V8.15835H92.321C92.8258 8.15835 93.0751 7.95812 93.0751 7.53263L93.0813 7.55766ZM94.3775 9.804C94.3775 10.6925 93.7979 11.3495 92.508 11.3495H89.9219V6.00586H92.4145C93.6048 6.00586 94.1781 6.63158 94.1781 7.42C94.1938 7.63405 94.1496 7.84825 94.0505 8.03843C93.9514 8.2286 93.8013 8.38717 93.6172 8.49624V8.64642C93.8343 8.74874 94.0174 8.9118 94.1445 9.11602C94.2717 9.32024 94.3374 9.55695 94.3338 9.79775" fill="#F1F3F5"/>
<path fill-rule="evenodd" clip-rule="evenodd" d="M99.1553 8.75279C99.1553 7.7704 98.7004 6.9945 97.7033 6.9945C96.7062 6.9945 96.2576 7.7704 96.2576 8.75279C96.2576 9.73517 96.7187 10.5048 97.7033 10.5048C98.6879 10.5048 99.1553 9.72892 99.1553 8.75279ZM100.289 8.75279C100.289 10.3046 99.3858 11.4935 97.7033 11.4935C96.0208 11.4935 95.1172 10.3046 95.1172 8.75279C95.1172 7.20099 96.027 6.00586 97.7033 6.00586C99.3796 6.00586 100.289 7.19473 100.289 8.75279Z" fill="#F1F3F5"/>
<path fill-rule="evenodd" clip-rule="evenodd" d="M55.4985 15.793V19.5223H55.6481L57.6235 15.793H59.063V21.1241H58.0286V17.3135H57.8853L55.86 21.1241H54.4766V15.793H55.4985Z" fill="#F1F3F5"/>
<path fill-rule="evenodd" clip-rule="evenodd" d="M64.9709 15.793V21.1241H63.8616V18.8903H61.5061V21.1241H60.3906V15.793H61.5061V17.8704H63.8616V15.793H64.9709Z" fill="#F1F3F5"/>
<path fill-rule="evenodd" clip-rule="evenodd" d="M70.7365 15.793V21.1241H69.6273V18.8903H67.2655V21.1241H66.1562V15.793H67.2655V17.8704H69.6273V15.793H70.7365Z" fill="#F1F3F5"/>
<path fill-rule="evenodd" clip-rule="evenodd" d="M75.6569 18.5336C75.6569 17.5575 75.2019 16.7753 74.2111 16.7753C73.2203 16.7753 72.7591 17.5575 72.7591 18.5336C72.7591 19.5097 73.2203 20.2919 74.2111 20.2919C75.2019 20.2919 75.6569 19.5097 75.6569 18.5336ZM76.7972 18.5336C76.7972 20.0917 75.8874 21.2743 74.2111 21.2743C72.5348 21.2743 71.625 20.0917 71.625 18.5336C71.625 16.9756 72.5286 15.8242 74.2111 15.8242C75.8937 15.8242 76.7972 17.0068 76.7972 18.5649" fill="#F1F3F5"/>
<path fill-rule="evenodd" clip-rule="evenodd" d="M81.1168 19.5223C81.1168 19.0717 80.8364 18.8402 80.2631 18.8402H78.9483V20.2043H80.2507C80.8053 20.2043 81.1168 19.9915 81.1168 19.5786V19.5223ZM80.9611 17.3635C80.9611 16.9693 80.7056 16.7753 80.2008 16.7753H78.9545V17.9642H80.2008C80.7056 17.9642 80.9486 17.7702 80.9486 17.3385L80.9611 17.3635ZM82.2697 19.5786C82.2697 20.4671 81.6902 21.1241 80.4002 21.1241H77.8203V15.8242H80.313C81.5032 15.8242 82.0828 16.4499 82.0828 17.2321C82.0971 17.4467 82.0517 17.661 81.9515 17.8511C81.8514 18.0412 81.7004 18.1996 81.5157 18.3083V18.4585C81.735 18.5531 81.9226 18.7089 82.0563 18.9075C82.1899 19.1061 82.264 19.339 82.2697 19.5786Z" fill="#F1F3F5"/>
<path fill-rule="evenodd" clip-rule="evenodd" d="M84.4854 18.7088H85.9062L85.3578 16.8316H85.0337L84.4854 18.7088ZM86.1991 19.6849H84.2049L83.7812 21.1241H82.7031L84.367 15.8242H86.0557L87.7258 21.1554H86.629L86.1991 19.6849Z" fill="#F1F3F5"/>
<path fill-rule="evenodd" clip-rule="evenodd" d="M92.5754 21.1492H88.4688V15.793H89.5655V20.148H91.7964V15.793H92.8932V20.148H93.641V22.4632H92.5754V21.1492Z" fill="#F1F3F5"/>
<path fill-rule="evenodd" clip-rule="evenodd" d="M95.5516 15.793V19.5223H95.695L97.6704 15.793H99.1099V21.1241H98.0755V17.3135H97.9321L95.9069 21.1241H94.5234V15.793H95.5516Z" fill="#F1F3F5"/>
<path fill-rule="evenodd" clip-rule="evenodd" d="M104.117 14.4512C104.049 14.7708 103.874 15.0573 103.622 15.2629C103.369 15.4685 103.053 15.5807 102.728 15.5807C102.402 15.5807 102.087 15.4685 101.834 15.2629C101.581 15.0573 101.406 14.7708 101.338 14.4512H102.148C102.156 14.5196 102.177 14.5858 102.21 14.6459C102.244 14.706 102.289 14.7588 102.343 14.8013C102.397 14.8438 102.458 14.8751 102.524 14.8934C102.591 14.9118 102.66 14.9167 102.728 14.908C102.864 14.9222 103.001 14.8825 103.109 14.7973C103.218 14.7121 103.288 14.5879 103.307 14.4512H104.117ZM101.463 15.8528V19.5383H101.587L103.569 15.8528H105.002V21.1214H103.974V17.367H103.824L101.805 21.1214H100.422V15.8528H101.463Z" fill="#F1F3F5"/>
<path fill-rule="evenodd" clip-rule="evenodd" d="M54.4766 25.7227H56.2152L57.0814 27.8501H57.2309L58.0909 25.7227H59.7983V31.0601H58.7639V26.8928H58.6143L57.6485 29.2705H56.6327L55.6668 26.8928H55.5172V31.0601H54.4766V25.7227Z" fill="#F1F3F5"/>
<path fill-rule="evenodd" clip-rule="evenodd" d="M64.7194 28.3383C64.7194 27.3622 64.2707 26.5863 63.2736 26.5863C62.2766 26.5863 61.8217 27.3622 61.8217 28.3383C61.8217 29.3145 62.2828 30.0966 63.2736 30.0966C64.2644 30.0966 64.7194 29.3207 64.7194 28.3383ZM65.8598 28.3383C65.8598 29.8964 64.9499 31.0853 63.2736 31.0853C61.5973 31.0853 60.6875 29.8964 60.6875 28.3383C60.6875 26.7803 61.5911 25.5977 63.2736 25.5977C64.9562 25.5977 65.8598 26.7865 65.8598 28.3383Z" fill="#F1F3F5"/>
<path fill-rule="evenodd" clip-rule="evenodd" d="M71.3314 29.2705C71.2599 29.7937 70.9927 30.2699 70.5841 30.6023C70.1755 30.9347 69.6561 31.0984 69.1316 31.0601C67.5176 31.0601 66.6016 29.9338 66.6016 28.3132C66.6016 26.6925 67.5301 25.5725 69.1316 25.5725C69.6277 25.5339 70.1207 25.6796 70.517 25.9818C70.9132 26.2839 71.1853 26.7217 71.2815 27.2119H70.1287C70.0589 27.0087 69.9218 26.8358 69.7404 26.7219C69.5589 26.608 69.344 26.5601 69.1316 26.5862C68.1844 26.5862 67.7357 27.3558 67.7357 28.3382C67.7357 29.3206 68.1844 30.0965 69.1316 30.0965C69.3751 30.1193 69.6182 30.0497 69.8131 29.9014C70.008 29.7532 70.1406 29.537 70.1847 29.2955L71.3314 29.2705Z" fill="#F1F3F5"/>
<path fill-rule="evenodd" clip-rule="evenodd" d="M72.3594 25.7227H73.4748V27.8063H74.7087L75.7182 25.7227H76.8711L75.6434 28.3132L76.9396 31.0601H75.7868L74.7149 28.8137H73.4748V31.0601H72.3594V25.7227Z" fill="#F1F3F5"/>
<path fill-rule="evenodd" clip-rule="evenodd" d="M80.9637 29.4516C80.9637 29.0011 80.6832 28.7695 80.1162 28.7695H78.8013V30.1086H80.0975C80.6583 30.1086 80.9637 29.8958 80.9637 29.4829V29.4516ZM80.8141 27.2678C80.8141 26.8736 80.5586 26.6796 80.0538 26.6796H78.8075V27.8685H80.0538C80.5586 27.8685 80.8079 27.6745 80.8079 27.2428L80.8141 27.2678ZM82.104 29.5141C82.104 30.4027 81.5307 31.0659 80.2346 31.0659H77.6484V25.7285H80.1411C81.3313 25.7285 81.9046 26.3542 81.9046 27.1426C81.9177 27.3555 81.8724 27.5678 81.7735 27.7565C81.6746 27.9452 81.5259 28.103 81.3438 28.2126V28.3378C81.5597 28.441 81.7416 28.6045 81.8675 28.8086C81.9935 29.0128 82.0583 29.249 82.0542 29.4891" fill="#F1F3F5"/>
<path fill-rule="evenodd" clip-rule="evenodd" d="M87.8047 31.0538H88.9139V25.7227H87.8047V31.0538ZM86.066 29.2955C86.066 28.795 85.7981 28.5071 85.0565 28.5071H84.1405V30.0777H85.0815C85.823 30.0777 86.091 29.8024 86.091 29.2955H86.066ZM83.0312 31.0538V25.7227H84.1405V27.531H85.2559C86.5023 27.531 87.2314 28.1943 87.2314 29.283C87.2314 30.3718 86.5023 31.0538 85.2559 31.0538H83.0312Z" fill="#F1F3F5"/>
<path fill-rule="evenodd" clip-rule="evenodd" d="M9.27794 31.9906C9.19121 32.1227 9.05966 32.2187 8.90773 32.2608C8.75581 32.3028 8.59385 32.2881 8.45196 32.2192C8.35762 32.1188 8.30242 31.9877 8.29645 31.8498C8.29048 31.7119 8.33412 31.5764 8.41943 31.4682C8.28092 31.5003 8.15856 31.5815 8.07472 31.6968C7.99863 31.8689 7.98464 32.0622 8.03517 32.2435C8.08569 32.4249 8.19758 32.5829 8.35157 32.6903C8.50556 32.7978 8.69202 32.848 8.87889 32.8323C9.06577 32.8167 9.24138 32.7361 9.3755 32.6045C9.44681 32.4972 9.48486 32.3711 9.48486 32.2421C9.48486 32.1131 9.44681 31.9869 9.3755 31.8796C9.35549 31.9205 9.32915 31.958 9.29745 31.9906H9.27794ZM21.5377 10.7596C21.4068 10.5865 21.3126 10.3881 21.2611 10.1769C21.2097 9.96573 21.202 9.74616 21.2385 9.53185C21.0889 9.79916 21.0076 10.0995 21.002 10.4061C20.9963 10.7127 21.0664 11.0159 21.206 11.2886C21.6483 11.9416 22.0515 12.007 22.4027 12.6861C22.4277 12.5052 22.3911 12.3211 22.2987 12.1637C22.1621 11.8894 22.1036 11.6543 22.4353 11.5629C23.3523 11.2886 24.2108 12.6274 24.7181 12.6012C24.9163 12.5855 25.1052 12.5105 25.2605 12.386C25.4159 12.2614 25.5305 12.093 25.5896 11.9025C25.3425 12.0574 25.0549 12.1347 24.7636 12.1245C24.0482 12.0331 23.71 11.2233 22.9035 11.06C22.3897 10.9555 21.954 11.171 21.5182 10.7531L21.5377 10.7596ZM21.0304 25.6168C20.7898 25.9694 20.9719 26.4657 21.6093 26.6551C22.069 26.7607 22.493 26.9859 22.8385 27.3082C23.2483 27.7196 23.4434 27.7719 23.5409 27.7719L5.98048 3.30818L5.74635 3.47797C5.74635 3.47797 15.8924 17.5972 20.3996 23.8796C20.5687 24.1147 21.2516 25.3359 21.0499 25.6494L21.0304 25.6168ZM20.9784 26.7661C20.328 26.7661 19.5476 27.0208 18.7736 26.3025C18.5111 26.0388 18.1726 25.8647 17.806 25.8049C17.4395 25.7451 17.0635 25.8027 16.7314 25.9694C16.7314 25.9694 17.3818 26.6225 17.024 26.8968C16.4257 27.3408 16.8679 27.8633 16.8094 28.0657C16.7509 28.2682 16.159 28.3074 15.1509 27.8437C14.7022 27.6351 14.2014 27.5668 13.7136 27.6478C13.4534 27.687 13.538 27.8829 13.5965 27.9351C13.655 27.9874 14.0193 28.3204 14.1819 28.4314C14.3445 28.5425 14.6501 28.7972 14.7802 28.7057C14.9103 28.6143 14.6371 28.118 14.6371 28.118C15.506 28.4188 16.4009 28.6374 17.3102 28.771C18.1167 28.771 17.3622 27.4257 17.9931 27.3604C18.3183 27.3604 18.715 27.8306 19.3719 27.9221C19.8346 27.9353 20.295 27.8531 20.7248 27.6804C21.206 27.5629 21.3751 28.1572 21.4532 28.6861C21.4636 28.8474 21.5056 29.0049 21.5768 29.1498C21.7328 28.3923 21.941 26.727 20.9784 26.7531V26.7661ZM25.9994 28.3074C25.7392 27.6021 25.2384 27.909 25.0173 27.8306C24.7962 27.7523 24.5035 27.4715 24.4059 26.7204C24.3084 25.9694 23.6775 26.3743 23.6775 26.3743C23.6775 26.3743 24.4124 27.8568 24.7116 28.647C25.0108 29.4372 25.2579 28.8233 25.6222 29.2543C25.9864 29.6853 25.9408 31.9057 25.7327 32.6241C25.4961 33.44 25.0119 34.1615 24.3474 34.6878C24.8612 34.629 25.8108 33.6168 26.0839 32.9572C26.2666 32.4946 26.3118 31.9887 26.214 31.5008L26.6433 31.4617L26.3766 30.8086L26.7928 30.7433C26.7928 30.7433 26.2595 29.0453 25.9994 28.34V28.3074ZM8.91373 29.7441C8.37474 29.6033 7.81348 29.5701 7.26174 29.6461C6.75881 29.7727 6.2447 29.8493 5.72684 29.8747C5.49515 29.8746 5.26606 29.8257 5.05434 29.7312C4.84262 29.6367 4.65296 29.4987 4.4976 29.3261C4.36946 29.1676 4.26837 28.9889 4.19843 28.7972C4.53877 28.179 5.06129 27.6817 5.69431 27.3735C8.51698 25.7931 7.58043 24.0168 7.40483 21.9596C7.32804 21.5233 7.34643 21.0755 7.45871 20.6471C7.571 20.2187 7.77451 19.8198 8.05521 19.478C8.6416 19.0472 9.35905 18.8347 10.0844 18.8772C9.11908 18.363 8.00179 18.2147 6.93655 18.4592C5.54472 18.8641 5.29107 19.8763 5.05043 20.5947C4.94348 21.0245 4.73172 21.4209 4.43426 21.748C4.1368 22.0752 3.76297 22.323 3.34642 22.469C1.27819 23.3376 1.39526 24.9768 1.39526 24.9768C1.39526 24.9768 0.647318 23.3572 2.65701 21.9988C5.20653 20.2682 4.22445 18.9359 5.07645 18.1392C5.72684 17.5253 6.5398 17.6233 7.76253 17.9563C7.5414 17.6951 4.30899 16.3302 3.93176 19.2233C3.61308 21.6853 1.27169 21.3392 0.86845 23.6576C0.58228 25.2968 2.1302 26.6747 2.1302 26.6747C2.1302 26.6747 0.894464 24.1865 3.32691 23.1808C5.00491 22.4886 5.96748 21.6853 6.21463 20.8951C6.21463 21.1498 6.21463 21.4176 6.21463 21.7114C6.21463 22.8282 6.76744 23.6706 6.60484 25.2576C6.52029 26.1196 4.95287 26.9817 4.07485 27.8698C4.09863 27.4822 4.2146 27.106 4.41304 26.7727C4.69343 26.4298 4.9396 26.0602 5.14798 25.669C5.31349 25.3079 5.36567 24.9047 5.29758 24.5131C5.2518 24.2831 5.16828 24.0625 5.05043 23.86L4.93337 23.9057C5.05216 24.1693 5.10813 24.457 5.09684 24.7461C5.08555 25.0352 5.00731 25.3176 4.86832 25.571C4.63911 25.9331 4.37557 26.2721 4.08136 26.5833C3.76929 27.0168 3.58859 27.5316 3.56104 28.0657C3.55136 28.2473 3.56446 28.4295 3.60006 28.6078C3.47916 29.0627 3.44968 29.5371 3.51332 30.0036C3.57697 30.47 3.73248 30.9191 3.97079 31.3245C4.36102 31.9776 4.73174 32.487 4.54313 33.2837C4.35452 34.0804 5.01791 33.7866 5.4992 33.7996H5.94797C6.26015 33.7996 6.38373 33.571 6.19512 33.2641C5.83937 32.6539 5.40167 32.0957 4.89434 31.6053C4.59983 31.359 4.36315 31.0504 4.20124 30.7015C4.03934 30.3527 3.95621 29.9722 3.95779 29.5874C4.16553 29.8465 4.42267 30.0614 4.71414 30.2195C5.00562 30.3776 5.32557 30.4758 5.65529 30.5082C6.21269 30.498 6.76617 30.4123 7.30076 30.2535C7.78099 30.1788 8.27099 30.1965 8.74462 30.3057C9.17755 30.4096 9.58053 30.6131 9.92182 30.9C10.2152 31.1653 10.4216 31.5137 10.5137 31.8992C10.559 32.2191 10.5191 32.5454 10.398 32.8448C10.2769 33.1443 10.0789 33.4061 9.82427 33.6037L9.90231 33.6755C10.2357 33.482 10.5018 33.1902 10.6647 32.8398C10.8275 32.4894 10.8792 32.0972 10.8128 31.7163C10.7059 31.2438 10.4646 30.8127 10.1182 30.4753C9.77182 30.138 9.33529 29.9089 8.86169 29.8159L8.91373 29.7441ZM8.30887 16.7221C9.14137 17.6037 10.0324 17.251 10.4291 17.2968C10.8259 17.3425 11.2876 18.3678 11.047 19.367C10.9053 19.8573 10.7359 20.3392 10.5397 20.8102C10.3316 21.6004 11.3006 22.1621 11.0795 22.887C11.0145 23.0894 10.8779 23.3768 11.047 23.5988C11.3072 23.9515 11.7299 23.4878 12.2697 23.5988C12.6048 23.6466 12.9461 23.5799 13.2388 23.4094C13.1738 23.1025 11.9705 23.2919 11.6974 22.7955C11.5803 22.5735 11.2616 20.3139 11.964 19.3082C12.6665 18.3025 12.0096 18.087 11.5673 17.349C12.1722 17.0159 13.59 16.3041 13.59 16.3041C14.0267 16.7375 14.3952 17.2352 14.6827 17.78C14.8424 18.0956 14.9249 18.4448 14.9233 18.7988C14.9191 19.1645 14.7983 19.5193 14.5786 19.811C14.8713 19.7653 15.1444 19.2363 15.229 18.8314C15.2935 18.4228 15.2623 18.0047 15.1379 17.6102C14.8487 16.7965 14.3821 16.058 13.7721 15.4486C12.9185 15.7531 12.0881 16.1198 11.2876 16.5457C10.9104 15.8339 10.5267 15.9645 10.0584 16.0037C9.90427 15.9984 9.75401 15.9537 9.62195 15.8737C9.4899 15.7937 9.38044 15.681 9.30396 15.5465C9.81913 15.6877 10.3674 15.6415 10.8519 15.4159C11.0448 15.371 11.2256 15.2841 11.3815 15.1613C11.5373 15.0385 11.6643 14.8828 11.7537 14.7053C11.843 14.5277 11.8924 14.3327 11.8984 14.1339C11.9044 13.9351 11.8669 13.7373 11.7884 13.5547C11.7973 13.8062 11.7132 14.0521 11.5523 14.245C11.3914 14.438 11.1651 14.5643 10.9169 14.5996C10.2248 14.5834 9.53712 14.4847 8.8682 14.3057C8.8682 14.3057 10.0584 14.1686 10.2991 13.4829C10.3399 13.3544 10.4076 13.2362 10.4977 13.1362C10.5877 13.0361 10.698 12.9565 10.8212 12.9028C10.9443 12.849 11.0775 12.8222 11.2118 12.8243C11.3461 12.8263 11.4784 12.8572 11.5998 12.9147C11.4376 12.7352 11.2147 12.6224 10.9745 12.5983C10.7342 12.5742 10.4935 12.6404 10.2991 12.7841C9.9507 12.9573 9.56397 13.038 9.17575 13.0185C8.78752 12.9991 8.41071 12.8802 8.08123 12.6731C7.11866 12.1833 6.78046 12.9931 6.57884 13.0127C6.37722 13.0323 6.23413 12.7188 6.34469 12.3596C6.45526 12.0004 7.55441 11.7065 9.2129 11.6478C9.85564 11.5704 10.5069 11.6839 11.086 11.9743C11.086 11.8829 10.7933 11.478 9.88931 11.2559C8.98527 11.0339 9.0438 10.6617 9.08933 10.0217C9.13485 9.38165 8.20481 9.63635 7.97717 9.55798C7.74954 9.47961 7.97717 8.97675 7.97717 8.97675C7.8116 9.01493 7.66475 9.11052 7.56244 9.24669C7.46014 9.38287 7.40893 9.5509 7.41783 9.72124C7.41783 9.98247 7.67798 10.1719 7.92513 10.2959C8.17227 10.42 8.2113 10.6421 7.76904 10.9033C7.25904 11.1932 6.73362 11.4548 6.19512 11.687C4.6472 12.34 6.57883 13.4959 5.89593 13.8486C5.67342 13.9386 5.47638 14.0822 5.32213 14.2667C5.16789 14.4512 5.06119 14.6709 5.01141 14.9065C4.99024 15.0833 5.00528 15.2625 5.05561 15.4332C5.10594 15.6039 5.19049 15.7625 5.30407 15.8992C6.63736 15.1743 7.5219 15.6837 8.3479 16.5523L8.30887 16.7221ZM16.2111 14.5212C16.2111 13.9531 16.3607 13.6788 16.5168 13.6723C16.9915 13.6723 17.0956 14.3253 17.1021 14.5147C17.1094 14.6694 17.0788 14.8235 17.0131 14.9635C16.9473 15.1035 16.8484 15.2253 16.7249 15.318C17.0631 15.3506 17.3362 14.8739 17.3753 14.5735C17.4077 14.4191 17.4089 14.2598 17.3787 14.1049C17.3485 13.9501 17.2876 13.803 17.1996 13.6723C17.7543 14.2117 18.0765 14.9478 18.0972 15.7229C17.9736 16.9441 16.6013 17.5906 16.6013 17.5906C17.0389 17.6632 17.488 17.6139 17.8996 17.4481C18.3113 17.2823 18.6698 17.0063 18.9362 16.6502C19.3524 16.1212 19.5345 15.3441 19.0272 14.038C18.572 12.8821 17.7265 11.9025 18.6305 9.68206C18.8037 9.23801 19.0754 8.83939 19.4248 8.51643C19.7743 8.19347 20.1924 7.95465 20.6475 7.81808C21.1025 7.6815 21.5826 7.65076 22.0512 7.72818C22.5199 7.8056 22.9648 7.98915 23.3523 8.26491C23.4342 8.32129 23.4976 8.40085 23.5344 8.49348C23.6255 8.74818 22.9556 9.08777 23.2483 9.23797C23.4897 9.31985 23.7227 9.42483 23.9442 9.55145C24.1523 9.70818 24.1913 9.84532 24.3019 9.94328C24.3254 9.97231 24.3552 9.99562 24.389 10.0115C24.4228 10.0273 24.4597 10.0352 24.497 10.0347C23.9481 9.29625 23.6453 8.40262 23.632 7.48124C22.9445 7.20487 22.2353 6.98642 21.5117 6.82818C20.5127 6.69858 19.4976 6.85713 18.585 7.28532C17.2127 7.93838 15.7623 9.24451 15.7623 12.327C15.7377 13.0788 15.8892 13.8259 16.2046 14.5082L16.2111 14.5212ZM0.953003 21.6984C1.15126 21.6687 1.33239 21.5688 1.46362 21.4167C1.59485 21.2645 1.66749 21.0703 1.66841 20.869C1.78152 21.021 1.83689 21.2086 1.82452 21.398C1.90772 21.2663 1.96031 21.1175 1.9784 20.9626C1.99649 20.8077 1.97961 20.6507 1.929 20.5033C1.87839 20.3559 1.79535 20.2218 1.68606 20.111C1.57677 20.0002 1.44404 19.9155 1.29771 19.8633C1.29771 19.8633 1.34322 20.7906 0.751365 21.1172C0.159513 21.4437 0.0359438 21.6723 0.00342452 22.0119C-0.011908 22.1757 0.024502 22.3402 0.107489 22.4821C0.190485 22.6036 0.311967 22.6933 0.452193 22.7368C0.270085 22.4886 0.231074 21.8943 0.953003 21.6984ZM15.7233 8.70246C13.9932 8.80042 13.3884 8.17348 12.2047 7.60532C11.021 7.03716 9.99987 7.44859 9.82427 7.72287C10.6829 7.84931 11.4954 8.19317 12.1852 8.72205C14.5851 10.2306 15.7233 8.72205 15.7233 8.72205V8.70246ZM14.9493 5.03226C14.6957 5.1041 14.0908 5.20206 14.3705 6.61267C14.6501 8.02328 15.4176 7.67716 15.6192 7.50083C15.3138 7.45149 15.037 7.29118 14.8416 7.05038C14.6461 6.80958 14.5456 6.50506 14.5591 6.19471C14.5591 4.96695 15.9379 5.19553 15.9379 5.19553C15.6376 5.02561 15.2842 4.97658 14.9493 5.05838V5.03226ZM30.37 22.9915C29.8288 21.3038 29.1002 19.6827 28.1977 18.1588C27.4497 17.029 27.0725 17.8388 26.7733 18.0935C26.4742 18.3482 25.6027 19.8241 25.2189 17.9237C24.8352 16.0233 22.8775 14.3776 22.8775 14.3776C23.1833 15.4826 23.2498 16.6405 23.0726 17.7735C23.0446 18.3749 23.0861 18.9776 23.1962 19.5694C23.1962 20.1245 21.5377 20.4902 21.4532 20.9147C21.3686 21.3392 23.9181 23.0959 26.3506 21.3392C27.079 20.8102 27.5343 22.8608 27.7684 23.4159C28.0026 23.971 27.5343 24.1474 28.0871 24.7874C28.6399 25.4274 28.2172 25.9694 28.2172 26.3678C28.2172 26.7661 29.3163 27.6739 29.518 27.478C29.8757 27.1253 29.0757 25.0225 28.757 24.291C28.4383 23.5596 27.9245 21.2151 27.5668 20.5751C27.3587 20.2094 26.266 20.4641 26.266 20.4641L26.188 20.1833C26.188 20.1833 26.3376 19.9939 26.4742 19.8502C27.5863 18.6943 27.4953 19.1972 28.6465 20.5751C29.7976 21.9531 28.4123 22.5343 29.4074 23.2657C30.4025 23.9972 30.7082 24.2061 30.3505 22.9915H30.37ZM12.1396 4.05267C12.3516 4.10996 12.5706 4.13635 12.79 4.13103C12.9141 4.12589 13.0348 4.089 13.1406 4.02385C13.2465 3.9587 13.334 3.86746 13.3949 3.75879C12.9212 3.77218 12.4588 3.61201 12.0941 3.30818C12.0941 3.30818 13.0437 3.26246 13.5185 3.19716C13.9932 3.13185 14.8713 2.89675 14.8713 2.89675C14.8713 2.89675 14.8388 3.68042 14.8323 4.13757C14.8257 4.59471 15.4111 4.49675 15.6062 4.43144C15.8013 4.36614 15.8924 3.44532 15.9314 2.66818C15.9639 2.08042 15.5282 2.07389 15.281 2.17838C14.69 2.45933 14.0843 2.70786 13.4664 2.92287C12.8246 3.05783 12.164 3.07773 11.5153 2.98164L11.4502 3.22981L12.4388 3.83716L12.1396 4.05267ZM13.7656 7.78165L14.0388 7.6641C13.9161 7.29885 13.8418 6.919 13.8176 6.5343C13.8453 5.9578 13.9127 5.38391 14.0193 4.81675H13.7656C13.7656 4.81675 13.655 5.68532 13.5055 6.44287C13.3559 7.20042 12.9591 7.05675 12.764 7.04369C12.5689 7.03063 11.0275 6.80206 11.0275 6.80206V7.03063L11.9055 7.16124C12.5492 7.30404 13.1736 7.52327 13.7656 7.8143V7.78165ZM14.7282 11.1645C14.203 11.412 13.613 11.4852 13.0437 11.3735C13.4252 11.6426 13.8783 11.7904 14.3445 11.798C14.5135 11.7948 14.68 11.7552 14.8325 11.682C14.9851 11.6088 15.1203 11.5036 15.229 11.3735C15.4238 11.1216 15.5451 10.8203 15.5796 10.5032C15.614 10.1862 15.5602 9.86575 15.4241 9.57757C15.4241 9.57757 15.3656 10.7661 14.7412 11.1645H14.7282ZM13.2713 29.6657C11.8079 28.2029 12.3413 28.3596 13.2713 27.0535C13.9607 26.087 17.3167 25.2314 19.0077 24.8527V24.6959C18.1492 24.7351 16.8614 24.7808 15.5737 24.7808C13.3624 24.7808 12.4713 23.9319 11.899 24.0363C9.70069 24.4543 11.2486 26.9817 8.68609 26.6486C6.12357 26.3155 6.16259 28.8821 6.16259 28.8821C6.89102 27.3931 7.64546 27.5759 8.23081 27.5759C8.81616 27.5759 9.5641 28.0461 10.5072 27.2494C10.7153 27.0731 11.6584 25.5449 11.5218 26.309C11.3742 26.8014 11.1084 27.2499 10.7478 27.6151C10.5332 27.8698 10.4031 28.0592 10.8519 28.3139L11.5023 28.6796C12.5494 29.2804 12.3738 29.9857 11.6909 29.9335C11.2096 29.9335 10.6373 29.6657 10.156 29.62C9.96085 29.62 9.73972 29.6788 10.0519 29.829C10.237 29.9154 10.4063 30.0324 10.5527 30.1751C11.3202 30.9457 10.4031 30.6388 12.5949 30.5212C12.9421 30.5089 13.2879 30.4696 13.629 30.4037C14.5005 30.2143 13.4729 29.8094 13.2843 29.6135L13.2713 29.6657ZM24.5555 30.9196C24.3759 30.594 24.2153 30.2582 24.0742 29.9139C23.723 29.1759 24.0742 29.3196 23.8531 28.8951C23.632 28.4706 23.4889 28.8951 22.8775 27.9482C22.7605 27.7653 22.5198 27.8437 22.4873 28.2943C22.4548 28.7449 23.2027 29.1629 23.5474 30.2535C23.8921 31.3441 24.1978 31.4682 23.8921 32.1343C23.5864 32.8004 22.2597 32.7874 22.2597 32.7874C23.3198 33.891 25.4726 32.3825 24.5555 30.9523" fill="#F1F3F5"/>
<path d="M48.4855 0.000433071L35.5156 35.8398L35.9557 36.0004L48.9256 0.161021L48.4855 0.000433071Z" fill="#F1F3F5"/>
</svg>
