<?xml version="1.0" standalone="no"?>
<!DOCTYPE svg PUBLIC "-//W3C//DTD SVG 20010904//EN"
 "http://www.w3.org/TR/2001/REC-SVG-20010904/DTD/svg10.dtd">
<svg version="1.0" xmlns="http://www.w3.org/2000/svg"
 width="512.000000pt" height="512.000000pt" viewBox="0 0 512.000000 512.000000"
 preserveAspectRatio="xMidYMid meet">

<g transform="translate(0.000000,512.000000) scale(0.100000,-0.100000)"
fill="#000000" stroke="none">
<path d="M0 4892 l0 -228 39 -117 40 -117 -40 -6 -39 -7 0 -334 0 -334 53 -24
c29 -14 77 -28 107 -32 l54 -8 9 -45 c4 -25 6 -135 4 -245 -4 -225 -17 -298
-71 -387 -26 -44 -42 -58 -93 -83 l-62 -30 -1 -502 c0 -277 3 -503 8 -503 16
0 192 139 271 215 80 77 177 193 233 281 84 131 297 604 272 604 -2 0 -22 -28
-45 -62 -50 -73 -146 -171 -213 -217 l-48 -33 6 63 c21 233 14 414 -24 624
-18 101 -67 294 -85 339 -4 10 59 -36 141 -101 282 -226 352 -267 459 -267 91
1 209 34 329 93 89 43 94 45 68 18 -53 -56 -172 -146 -235 -177 -70 -34 -148
-41 -223 -21 -82 23 -211 99 -326 194 -27 21 -48 35 -48 29 0 -15 95 -154 131
-192 19 -19 69 -63 111 -97 99 -80 133 -136 133 -218 0 -52 -8 -75 -56 -175
-46 -96 -130 -241 -207 -359 -15 -23 -15 -24 0 -15 9 5 66 48 126 96 238 189
460 409 575 571 34 48 114 168 177 267 163 257 218 308 320 298 87 -9 209 -91
296 -200 111 -141 178 -187 308 -215 177 -37 459 38 631 170 59 45 60 45 69
24 96 -225 228 -413 373 -528 266 -212 657 -248 931 -87 32 18 93 69 138 114
64 63 90 98 123 165 141 287 101 573 -121 876 -79 107 -108 167 -133 273 -30
130 -13 334 38 455 31 76 102 179 157 228 86 78 271 157 366 157 52 0 94 12
94 26 0 12 -46 14 -258 14 l-259 0 -61 -56 c-118 -106 -206 -244 -258 -404
-25 -77 -28 -99 -28 -225 1 -249 51 -376 281 -715 140 -206 133 -439 -19 -605
-239 -261 -666 -286 -885 -51 -118 126 -209 371 -216 584 l-2 74 55 17 c170
54 249 143 258 291 8 139 -31 252 -119 345 -47 50 -56 55 -94 55 -22 0 -50 -7
-61 -15 -10 -8 -23 -15 -28 -15 -25 -1 56 433 130 698 l6 22 -420 0 c-392 0
-421 -1 -426 -17 -3 -10 -13 -103 -21 -208 -18 -217 -26 -257 -61 -326 -67
-132 -241 -221 -372 -189 -44 10 -53 17 -73 55 -13 25 -27 41 -31 37 -14 -14
-21 -126 -10 -164 6 -21 8 -38 5 -38 -4 0 -21 11 -39 25 -41 31 -77 92 -98
165 -17 58 -23 215 -10 297 10 65 -8 49 -45 -42 -47 -113 -79 -247 -91 -379
-14 -157 -52 -224 -99 -177 -31 31 -34 87 -11 197 23 107 28 233 11 276 -5 15
-8 42 -5 60 8 50 -10 90 -40 86 -18 -2 -34 9 -69 52 -56 70 -200 180 -235 180
-5 0 -23 -37 -38 -82 l-29 -82 -7 42 c-4 23 -10 47 -13 52 -10 17 -34 11 -46
-11 -11 -22 -8 -109 6 -141 11 -28 -20 -22 -68 11 -61 42 -189 175 -244 253
l-48 67 -229 1 c-181 0 -226 -3 -219 -12 124 -164 256 -294 346 -338 44 -22
53 -29 32 -26 -16 3 -61 8 -100 12 -66 6 -69 5 -48 -10 12 -9 77 -46 145 -82
68 -36 143 -81 168 -100 44 -34 110 -109 110 -125 0 -4 -33 12 -72 37 -98 60
-205 99 -378 140 -80 19 -149 34 -155 34 -5 0 10 9 33 20 l44 20 -60 65 c-73
80 -140 179 -193 285 l-40 80 -70 0 c-47 0 -69 -4 -69 -12 0 -9 -3 -9 -12 0
-7 7 -43 12 -90 12 l-78 0 0 -228z m3308 -672 c39 -24 40 -38 4 -73 -74 -71
-404 -174 -759 -238 -168 -31 -411 -33 -468 -4 -36 18 -40 23 -39 57 2 60 11
64 142 71 149 7 222 21 611 111 463 108 457 107 509 76z m-2556 -104 c141 -27
435 -132 578 -206 132 -69 190 -131 190 -204 0 -46 -25 -60 -99 -54 -64 5
-179 48 -481 181 -396 173 -478 198 -646 198 -89 -1 -114 2 -125 15 -18 22 -2
30 106 49 208 37 358 44 477 21z m51 -530 c88 -42 199 -61 294 -51 l68 7 -25
21 -25 20 29 -7 c16 -4 43 -13 60 -20 l31 -13 -40 -12 c-22 -6 -79 -16 -126
-22 -185 -24 -328 37 -432 185 -16 23 -6 17 37 -22 32 -28 90 -67 129 -86z
m2187 49 c0 -3 -36 -23 -80 -45 -84 -42 -212 -83 -295 -94 -72 -10 -180 10
-255 47 l-65 31 39 4 c21 2 42 -1 45 -7 20 -32 263 -42 365 -16 32 8 88 31
124 50 58 30 122 46 122 30z m-530 -282 c46 -12 105 -17 200 -17 130 0 133 -1
80 -13 -203 -45 -352 -16 -475 92 l-50 44 90 -45 c50 -24 119 -52 155 -61z"/>
<path d="M1393 5109 c14 -8 22 -8 30 0 8 8 3 11 -18 11 -26 -1 -28 -2 -12 -11z"/>
<path d="M2109 4934 c-7 -9 -15 -41 -17 -72 -3 -47 0 -62 16 -82 29 -36 45
-15 50 64 6 86 -17 128 -49 90z"/>
<path d="M5030 4917 c-196 -81 -348 -284 -375 -502 -8 -61 15 -203 49 -307 14
-40 49 -126 80 -190 192 -409 197 -803 12 -1062 -140 -197 -396 -309 -706
-309 -340 0 -675 147 -966 425 -94 89 -174 128 -264 128 -36 0 -76 -3 -89 -7
-22 -6 -23 -9 -17 -69 16 -159 112 -389 227 -545 34 -46 101 -123 149 -170
257 -250 575 -379 934 -379 167 0 281 19 456 75 155 50 211 55 269 26 95 -49
229 -277 302 -516 l28 -90 0 236 1 235 -36 42 -36 42 36 0 36 0 0 345 0 346
-37 -26 c-72 -48 -181 -26 -218 44 -21 42 -19 52 4 15 39 -64 155 -81 222 -33
29 20 29 21 29 123 l0 103 -40 7 c-44 7 -110 64 -109 94 0 13 3 12 11 -6 14
-27 62 -57 106 -65 l32 -6 0 110 c0 110 0 110 -22 104 -45 -12 -67 -28 -82
-59 -13 -25 -16 -27 -16 -10 0 27 34 71 61 79 20 7 20 8 -10 39 -17 18 -31 37
-31 44 0 7 12 -1 28 -17 15 -16 37 -32 50 -36 22 -6 22 -5 22 95 0 95 -1 100
-18 91 -26 -14 -39 -32 -45 -61 -4 -22 -4 -21 -6 6 -1 21 7 39 24 56 l25 25
-30 13 c-31 13 -70 54 -70 74 0 6 7 0 16 -13 15 -21 70 -51 94 -51 6 0 10 36
10 95 0 70 -3 95 -13 95 -20 0 -58 -30 -67 -54 l-9 -21 0 22 c-1 24 42 63 70
63 17 0 19 8 19 69 0 69 0 69 -31 76 -38 9 -83 -9 -97 -38 -7 -15 -11 -17 -11
-6 -2 36 25 54 83 54 l56 0 0 136 c0 129 -2 140 -29 201 -41 89 -61 174 -61
254 0 75 15 144 31 144 6 0 7 5 4 11 -4 6 7 28 24 49 l31 39 0 170 c0 195 5
187 -90 148z m-28 -1317 c18 -11 25 -20 19 -25 -13 -7 -71 47 -71 67 0 8 5 6
11 -5 6 -10 24 -27 41 -37z m43 -744 c38 -16 55 -42 54 -83 -1 -29 -3 -26 -13
19 -7 33 -50 58 -99 58 -38 0 -87 -32 -87 -57 0 -9 -3 -14 -6 -10 -15 15 8 59
39 72 41 18 70 18 112 1z m-1756 -106 c78 -39 106 -119 60 -171 -19 -23 -20
-23 -10 -2 6 12 11 38 11 59 0 29 -7 43 -35 70 -67 62 -168 53 -201 -19 l-15
-32 6 30 c3 17 19 42 36 58 36 33 92 36 148 7z m-235 -142 c14 -62 95 -123
179 -134 33 -5 56 -1 92 15 36 16 44 17 34 5 -41 -50 -145 -62 -216 -26 -58
30 -95 81 -99 140 -4 48 0 48 10 0z m1780 18 c18 -8 41 -24 50 -37 20 -29 21
-89 1 -115 -13 -17 -13 -16 -3 13 34 91 -97 169 -189 113 -39 -24 -56 -54 -51
-91 3 -15 1 -26 -4 -23 -4 3 -8 24 -8 48 0 33 6 48 28 68 15 14 34 28 42 31
29 11 101 7 134 -7z m-1164 -91 c35 -18 70 -69 70 -103 0 -27 -29 -87 -38 -78
-3 4 0 12 6 18 17 17 15 65 -4 98 -52 86 -191 87 -221 0 -10 -30 -12 -31 -12
-10 0 33 21 70 50 87 29 17 105 11 149 -12z m801 -48 c76 -40 100 -127 47
-173 l-21 -19 18 27 c49 77 -53 185 -154 163 -29 -6 -64 -37 -74 -65 -3 -10
-6 -7 -6 8 -1 13 12 36 28 53 38 37 98 40 162 6z m-418 -21 c78 -32 111 -120
65 -168 -13 -13 -17 -17 -10 -8 37 50 -6 140 -78 161 -73 22 -131 -4 -150 -67
-7 -26 -8 -26 -9 -6 -1 29 24 78 46 91 26 15 98 13 136 -3z m566 -53 c38 -40
82 -57 146 -57 73 0 130 25 156 68 10 17 19 27 19 21 0 -22 -42 -76 -72 -95
-69 -41 -167 -34 -228 16 -32 27 -60 73 -59 96 0 7 4 4 9 -7 4 -11 18 -30 29
-42z m-1173 -66 c58 -78 169 -108 249 -67 47 24 56 20 19 -9 -51 -41 -138 -49
-199 -18 -59 29 -106 96 -104 149 l1 33 7 -31 c5 -17 16 -43 27 -57z m846 -88
c77 -55 167 -62 232 -17 l31 22 -20 -23 c-35 -40 -73 -53 -140 -49 -100 6
-168 66 -180 158 l-6 45 22 -53 c15 -38 33 -62 61 -83z m-454 24 c15 -27 67
-68 107 -83 47 -18 122 -14 160 9 21 12 32 15 29 7 -10 -25 -81 -56 -130 -56
-100 0 -183 69 -190 158 -3 38 -2 41 4 17 5 -16 14 -40 20 -52z"/>
<path d="M2195 4655 c-14 -13 -25 -36 -25 -50 0 -33 41 -75 73 -75 37 0 77 36
77 69 0 71 -76 105 -125 56z"/>
<path d="M5087 4460 c3 -11 9 -20 15 -20 5 0 4 9 -2 20 -6 11 -12 20 -14 20
-2 0 -2 -9 1 -20z"/>
<path d="M1844 3547 c-11 -29 0 -102 16 -102 19 0 22 106 3 112 -7 3 -16 -2
-19 -10z"/>
<path d="M1930 3492 c-19 -16 -21 -22 -11 -40 13 -24 40 -29 59 -10 35 35 -10
81 -48 50z"/>
<path d="M1706 3428 c-22 -30 -20 -81 3 -109 16 -20 21 -21 35 -10 23 19 30
74 14 107 -17 36 -33 40 -52 12z"/>
<path d="M2040 3345 c-10 -12 -10 -18 0 -30 7 -8 18 -15 25 -15 7 0 18 7 25
15 10 12 10 18 0 30 -7 8 -18 15 -25 15 -7 0 -18 -7 -25 -15z"/>
<path d="M1928 3253 c-22 -25 -34 -71 -58 -213 -12 -69 -30 -161 -40 -205 -65
-277 -274 -721 -493 -1050 -114 -169 -342 -463 -579 -744 -197 -234 -310 -437
-373 -672 -27 -104 -42 -250 -31 -322 l7 -47 382 1 c210 0 377 3 371 5 -7 3
-5 21 7 57 24 70 25 225 2 297 -16 51 -54 102 -82 111 -11 4 -10 11 4 39 10
19 19 37 21 39 2 2 15 -6 30 -18 37 -29 80 -26 152 10 114 57 235 220 249 337
6 55 -13 104 -48 123 l-21 11 24 25 c35 38 313 260 376 301 156 99 303 142
488 142 170 0 301 -27 498 -102 l78 -30 -6 -62 c-23 -204 -110 -349 -252 -416
-96 -46 -166 -36 -238 33 -75 72 -83 161 -17 193 68 34 131 -72 98 -163 -8
-21 -5 -23 28 -23 98 0 165 88 165 218 0 136 -109 236 -257 235 -82 -1 -159
-38 -234 -112 -99 -100 -141 -233 -120 -379 33 -224 202 -396 456 -463 115
-31 338 -31 484 0 413 87 683 356 726 722 l7 56 111 7 c228 13 476 54 559 90
38 17 98 -83 124 -205 23 -109 15 -313 -16 -394 -64 -167 -174 -242 -372 -253
-104 -5 -215 8 -335 39 -41 11 -78 18 -80 15 -9 -8 62 -98 119 -152 194 -183
437 -255 702 -209 98 17 138 8 144 -32 2 -12 11 -24 20 -26 9 -2 4 -3 -11 -1
-28 4 -57 -14 -57 -35 0 -6 -7 -11 -15 -11 -8 0 -15 -4 -15 -10 0 -6 92 -10
255 -10 l255 0 0 198 c0 129 -4 202 -11 209 -8 8 -8 13 0 17 7 5 11 67 11 184
l0 177 -33 -75 c-131 -301 -440 -520 -732 -520 -71 0 -192 25 -247 51 -24 11
-35 17 -25 14 210 -60 338 -54 498 23 188 90 305 232 361 440 50 184 13 598
-70 784 l-20 45 34 54 c18 30 34 57 34 62 0 13 -80 -4 -205 -43 -233 -73 -496
-120 -793 -142 -526 -37 -1011 113 -1326 411 -145 138 -300 375 -419 641 -67
151 -86 210 -108 340 -38 225 -90 400 -118 400 -4 0 -15 -8 -23 -17z m3152
-2877 c0 -2 -8 -10 -17 -17 -16 -13 -17 -12 -4 4 13 16 21 21 21 13z m-46 -39
c-2 -7 -14 -19 -27 -26 -21 -13 -21 -12 2 13 27 29 33 32 25 13z m-65 -55 c-7
-10 -18 -19 -26 -19 -10 0 -7 7 8 18 30 23 32 23 18 1z m-61 -41 c-7 -11 -16
-17 -21 -14 -4 3 0 11 10 19 24 18 25 17 11 -5z m-69 -37 c-8 -9 -14 -24 -14
-33 0 -17 -34 -20 -68 -6 -13 5 -16 3 -11 -8 3 -9 -3 -21 -16 -30 -19 -14 -25
-13 -50 1 l-29 17 77 27 c42 15 78 25 80 23 3 -2 11 2 19 10 20 20 29 19 12
-1z"/>
<path d="M4790 179 c0 -6 -6 -7 -12 -3 -7 4 -10 3 -5 -1 9 -11 47 -14 47 -4 0
4 -7 9 -15 13 -8 3 -15 1 -15 -5z"/>
<path d="M4702 153 c-12 -2 -20 -9 -17 -14 9 -14 32 -11 39 6 3 8 4 14 3 14
-1 -1 -12 -4 -25 -6z"/>
<path d="M1675 3065 c-27 -26 -32 -60 -13 -100 30 -66 116 -21 104 54 -5 33
-36 71 -58 71 -5 0 -20 -11 -33 -25z"/>
<path d="M2352 3007 c-46 -48 -17 -117 48 -117 29 0 43 6 54 22 52 74 -41 160
-102 95z"/>
<path d="M2253 2870 c21 -430 340 -880 782 -1099 378 -188 849 -244 1304 -156
182 36 431 124 431 154 0 4 -125 8 -277 8 -466 0 -839 56 -1198 180 -439 152
-756 437 -977 878 l-70 140 5 -105z"/>
<path d="M1259 2623 c-431 -564 -501 -645 -728 -845 -155 -136 -267 -223 -416
-324 l-115 -78 0 -123 c0 -119 1 -123 22 -127 13 -2 50 -9 83 -15 51 -9 171
-59 214 -89 12 -8 5 -23 -36 -79 -89 -120 -153 -225 -211 -343 -31 -63 -59
-116 -63 -118 -4 -2 -8 -111 -8 -243 l-2 -239 58 0 58 0 1 133 c1 279 79 460
341 800 493 637 714 983 822 1288 77 220 234 719 226 719 -2 0 -113 -143 -246
-317z"/>
<path d="M900 2468 c-64 -44 -67 -88 -6 -88 64 0 129 85 80 104 -26 10 -40 7
-74 -16z"/>
<path d="M500 2073 c-163 -141 -358 -297 -440 -353 l-60 -41 0 -75 c0 -89 -10
-91 143 24 132 99 296 262 384 382 77 106 117 169 111 175 -2 2 -64 -48 -138
-112z"/>
<path d="M8 533 c7 -3 16 -2 19 1 4 3 -2 6 -13 5 -11 0 -14 -3 -6 -6z"/>
<path d="M4576 34 c-4 -10 -1 -14 6 -12 15 5 23 28 10 28 -5 0 -13 -7 -16 -16z"/>
</g>
</svg>
