<?xml version="1.0" encoding="UTF-8"?>
<svg width='208px' height='28px' viewBox='0 0 208 28' version='1.1' xmlns='http://www.w3.org/2000/svg'>
    <!-- Generator: sketchtool 46.1 (44463) - http://www.bohemiancoding.com/sketch -->
    <title>005D348D-9240-44AC-AD28-F28A36D4FB10</title>
    <desc>Created with sketchtool.</desc>
    <defs></defs>
    <g id="Page-1" stroke="none" stroke-width="1" fill="none" fill-rule="evenodd">
        <g id="header-hover" transform="translate(-32.000000, -33.000000)">
            <g id="Profilum-Logo" transform="translate(32.000000, 33.000000)">
                <path d="M119.500016,26 C118.67155,26 118,25.3617467 118,24.5743998 L118,3.42563033 C118,2.63825329 118.67155,2 119.500016,2 C120.32845,2 121,2.63825329 121,3.42563033 L121,24.5743998 C121,25.3617467 120.32845,26 119.500016,26" id="Fill-6" fill="#000000"></path>
                <path d="M133.500016,26 C132.67155,26 132,25.3781642 132,24.6110699 L132,11.3889595 C132,10.6218358 132.67155,10 133.500016,10 C134.32845,10 135,10.6218358 135,11.3889595 L135,24.6110699 C135,25.3781642 134.32845,26 133.500016,26" id="Fill-8" fill="#000000"></path>
                <path d="M119.409065,26 C119.136621,26 118.861481,25.9202843 118.619082,25.7543708 C117.974413,25.3118946 117.806004,24.4258567 118.243113,23.7740815 L132.422307,2.62579087 C132.859416,1.97401575 133.73576,1.80430337 134.380939,2.24515154 C135.025578,2.6876278 135.193987,3.57420839 134.756908,4.22598351 L120.577714,25.374244 C120.304731,25.7809326 119.861182,26 119.409065,26" id="Fill-9" fill="#0054A5"></path>
                <path d="M99.6480353,25 L93.390713,25 C92.6226152,25 92,24.3692585 92,23.5911782 C92,22.8130681 92.6226152,22.1823266 93.390713,22.1823266 L99.6480353,22.1823266 C104.373978,22.1823266 108.218633,18.2880813 108.218633,13.5005363 C108.218633,8.71245505 104.373978,4.81767341 99.6480353,4.81767341 L93.390713,4.81767341 C92.6226152,4.81767341 92,4.18693194 92,3.40882181 C92,2.63074147 92.6226152,2 93.390713,2 L99.6480353,2 C105.907485,2 111,7.15891638 111,13.5005363 C111,19.8416199 105.907485,25 99.6480353,25" id="Fill-10" fill="#000000"></path>
                <path d="M99.6093259,25 L93.3521788,25 C87.0923726,25 82,19.8416199 82,13.5005363 C82,7.15891638 87.0923726,2 93.3521788,2 L99.6093259,2 C100.377402,2 101,2.63074147 101,3.40882181 C101,4.18693194 100.377402,4.81767341 99.6093259,4.81767341 L93.3521788,4.81767341 C88.6263686,4.81767341 84.7818505,8.71245505 84.7818505,13.5005363 C84.7818505,18.2880813 88.6263686,22.1823266 93.3521788,22.1823266 L99.6093259,22.1823266 C100.377402,22.1823266 101,22.8130681 101,23.5911782 C101,24.3692585 100.377402,25 99.6093259,25" id="Fill-11" fill="#000000"></path>
                <path d="M95.4629878,28 C94.6549861,28 94,27.3626538 94,26.5764258 C94,24.8182065 94.7851877,23.8651828 95.3583666,23.1698796 C95.8197133,22.61 96.0734649,22.3018796 96.0734649,21.5438022 C96.0734649,20.7862366 95.8197133,20.4776043 95.3583666,19.9182366 C94.7851877,19.2229634 94,18.2699398 94,16.5117204 C94,14.7540129 94.7851877,13.8015312 95.3589261,13.1062581 C95.8197133,12.5474624 96.0734649,12.2398839 96.0734649,11.4828903 C96.0734649,10.7264086 95.8197133,10.4177462 95.3589261,9.85895054 C94.7851877,9.16367742 94,8.21065376 94,6.4524043 C94,4.69472688 94.7851877,3.74224516 95.3589261,3.04697204 C95.8197133,2.48814624 96.0734649,2.18005591 96.0734649,1.42357419 C96.0734649,0.637346237 96.728451,0 97.5370122,0 C98.3450449,0 99,0.637346237 99,1.42357419 C99,3.18125161 98.2142529,4.13376344 97.6410739,4.82903656 C97.1797583,5.38783226 96.9260067,5.69595269 96.9260067,6.4524043 C96.9260067,7.20942796 97.1803178,7.51806022 97.6410739,8.07688602 C98.2148123,8.77215914 99,9.7251828 99,11.4828903 C99,13.2405677 98.2142529,14.1930495 97.6410739,14.8883226 C97.1797583,15.4471484 96.9260067,15.7552387 96.9260067,16.5117204 C96.9260067,17.2697978 97.1803178,17.5779183 97.6416334,18.1372559 C98.2148123,18.832529 99,19.7855828 99,21.5438022 C99,23.3025634 98.2148123,24.2555871 97.6416334,24.9508602 C97.1803178,25.5107699 96.9260067,25.8188602 96.9260067,26.5764258 C96.9260067,27.3626538 96.2710206,28 95.4629878,28" id="Fill-12" fill="#00B4D0"></path>
                <path d="M174.37003,26 C174.201698,26 174.030775,25.9681006 173.86451,25.9005767 C173.161491,25.6155809 172.81752,24.8031063 173.097395,24.0852953 L181.356036,2.8816072 C181.635386,2.16432834 182.430649,1.81443981 183.13524,2.09893303 C183.838288,2.38392884 184.182229,3.19637384 183.902908,3.91418486 L175.643714,25.1179025 C175.430585,25.666076 174.915167,26 174.37003,26" id="Fill-13" fill="#000000"></path>
                <path d="M174.661072,21 C174.137031,21 173.639984,20.6701208 173.425054,20.1217724 L167.103934,3.98041267 C166.818745,3.25218241 167.1406,2.41526151 167.823022,2.11091565 C168.505445,1.80656979 169.289729,2.1500467 169.574946,2.87827696 L175.896066,19.0196065 C176.181255,19.747867 175.8594,20.5847879 175.176978,20.8891337 C175.008385,20.9646763 174.833221,21 174.661072,21" id="Fill-14" fill="#000000"></path>
                <path d="M206.589959,20 C205.811199,20 205.179918,19.3784236 205.179918,18.6116198 L205.179918,7.95470697 L200.671375,14.5764675 C200.409641,14.9614403 199.970383,15.1922302 199.5,15.1922302 C199.029617,15.1922302 198.590359,14.9614403 198.328625,14.5764675 L193.820112,7.95470697 L193.820112,18.6116198 C193.820112,19.3784236 193.188831,20 192.410041,20 C191.631282,20 191,19.3784236 191,18.6116198 L191,3.38985374 C191,2.77884785 191.405467,2.23913429 191.999752,2.06116771 C192.592389,1.88108701 193.235474,2.10817719 193.581416,2.61673705 L199.5,11.3102037 L205.418584,2.61673705 C205.764526,2.10870572 206.407072,1.88320112 207.000278,2.06116771 C207.594533,2.23913429 208,2.77884785 208,3.38985374 L208,18.6116198 C208,19.3784236 207.368748,20 206.589959,20" id="Fill-15" fill="#000000"></path>
                <path d="M206.589959,26 L192.410041,26 C191.631282,26 191,25.3284373 191,24.5 C191,23.671531 191.631282,23 192.410041,23 L206.589959,23 C207.368748,23 208,23.671531 208,24.5 C208,25.3284373 207.368748,26 206.589959,26" id="Fill-16" fill="#A8BA2D"></path>
                <path d="M157.641453,26 C157.071754,26 156.541808,25.6283227 156.352765,25.0413316 L150.814356,7.84141187 L146.647229,20.7807012 C146.411191,21.5133832 145.641601,21.9095394 144.93141,21.6681206 C144.219171,21.425135 143.833324,20.6334139 144.069361,19.9007023 L149.525668,2.95816586 C149.709547,2.38604535 150.229165,2 150.814356,2 C151.400066,2 151.919135,2.38604535 152.103535,2.95816586 L158.930632,24.1618648 C159.16667,24.8945764 158.780851,25.6857654 158.069102,25.928751 C157.927081,25.9771471 157.782954,26 157.641453,26" id="Fill-17" fill="#000000"></path>
                <path d="M143.5,26 C143.106452,26 142.718606,25.8392531 142.439166,25.5574033 C142.159694,25.2760962 142,24.8862945 142,24.4901728 C142,24.094051 142.159694,23.7036747 142.439166,23.4223676 C142.998078,22.8592108 144.00189,22.8592108 144.560834,23.4223676 C144.840306,23.7036747 145,24.094051 145,24.4901728 C145,24.8862945 144.840306,25.2760962 144.560834,25.5574033 C144.281362,25.8392531 143.893548,26 143.5,26" id="Fill-18" fill="#D3278B"></path>
                <path d="M61.8958126,27 C57.4531517,27 53.3751168,24.4941332 51.2527156,20.4593336 C50.8880895,19.766012 51.1364337,18.8988614 51.8082943,18.5217791 C52.479626,18.1452405 53.3193415,18.4022377 53.6839676,19.0955594 C55.321288,22.2094043 58.4680688,24.1431523 61.8958126,24.1431523 C67.0445399,24.1431523 71.2330675,19.8170972 71.2330675,14.5 C71.2330675,9.18290278 67.0445399,4.85687787 61.8958126,4.85687787 C58.4017731,4.85687787 55.2271047,6.84603124 53.610296,10.0479084 C53.2572481,10.7471814 52.4217642,11.0194045 51.7441145,10.6537416 C51.0664648,10.289136 50.8038975,9.42579193 51.1569454,8.7265189 C53.2525169,4.57704178 57.3674023,2 61.8958126,2 C68.5703096,2 74,7.60777874 74,14.5 C74,21.392765 68.5703096,27 61.8958126,27" id="Fill-19" fill="#000000"></path>
                <path d="M51.5028725,16 C51.1085791,16 50.7199987,15.8392544 50.4399974,15.557375 C50.1599962,15.2760701 50,14.8862715 50,14.4901529 C50,14.0883207 50.1599962,13.7036931 50.4399974,13.4223882 C50.994287,12.8592039 52.005713,12.8592039 52.5657156,13.4223882 C52.8400038,13.7036931 53,14.0883207 53,14.4901529 C53,14.8862715 52.8400038,15.2760701 52.5657156,15.557375 C52.2800013,15.8392544 51.8971339,16 51.5028725,16" id="Fill-20" fill="#A8BA2D"></path>
                <path d="M26.5028405,26 C26.1028661,26 25.7199987,25.8392531 25.4399974,25.5574033 C25.1599962,25.2760962 25,24.8862945 25,24.4901728 C25,24.094051 25.1599962,23.7036747 25.4342844,23.4223676 C26,22.8592108 27,22.8592108 27.5657156,23.4223676 C27.8400038,23.7036747 28,24.094051 28,24.4901728 C28,24.8862945 27.8400038,25.2760962 27.5600026,25.5574033 C27.2857143,25.8392531 26.8971339,26 26.5028405,26" id="Fill-21" fill="#000000"></path>
                <path d="M34.3660439,18 L31.3866208,18 C30.6207831,18 30,17.3493993 30,16.5468208 C30,15.7442115 30.6207831,15.0936109 31.3866208,15.0936109 L34.3660439,15.0936109 C37.0464318,15.0936109 39.226287,12.80798 39.226287,9.99944679 C39.226287,7.1909136 37.0464318,4.90638914 34.3660439,4.90638914 L31.3866208,4.90638914 C30.6207831,4.90638914 30,4.25578849 30,3.45320994 C30,2.65004745 30.6207831,2 31.3866208,2 L34.3660439,2 C38.5754265,2 42,5.58849178 42,9.99944679 C42,14.4115082 38.5754265,18 34.3660439,18" id="Fill-22" fill="#000000"></path>
                <path d="M26.4999841,21 C25.6715495,21 25,20.3660577 25,19.583962 L25,3.41603802 C25,2.63343316 25.6715495,2 26.4999841,2 C27.3284505,2 28,2.63343316 28,3.41603802 L28,19.583962 C28,20.3660577 27.3284505,21 26.4999841,21" id="Fill-23" fill="#000000"></path>
                <path d="M16.5000159,26 C15.6715495,26 15,25.3617467 15,24.5743998 L15,3.42563033 C15,2.63825329 15.6715495,2 16.5000159,2 C17.3284505,2 18,2.63825329 18,3.42563033 L18,24.5743998 C18,25.3617467 17.3284505,26 16.5000159,26" id="Fill-24" fill="#000000"></path>
                <path d="M1.50001593,26 C0.671549517,26 0,25.3617467 0,24.5743998 L0,3.42563033 C0,2.63825329 0.671549517,2 1.50001593,2 C2.32845048,2 3,2.63825329 3,3.42563033 L3,24.5743998 C3,25.3617467 2.32845048,26 1.50001593,26" id="Fill-25" fill="#000000"></path>
                <path d="M6.33603683,5 C5.5991447,5 5.00150733,4.33243756 5.00000294,3.50796712 C4.99847018,2.6823269 5.59559663,2.01134998 6.33351061,2.01021182 L11.6614102,2 L11.6634539,2 C12.4008285,2 12.9984659,2.66696175 12.9999987,3.49203288 C13.0010205,4.3176731 12.4038941,4.98804932 11.6659801,4.98918748 L6.33859145,5 L6.33603683,5 Z" id="Fill-26" fill="#D3278B"></path>
            </g>
        </g>
    </g>
</svg>
